<svg id="visual" viewBox="0 0 900 600" width="900" height="600" xmlns="http://www.w3.org/2000/svg" xmlns:xlink="http://www.w3.org/1999/xlink" version="1.1"><path d="M0 127L13.7 119C27.3 111 54.7 95 82 82C109.3 69 136.7 59 163.8 64C191 69 218 89 245.2 98C272.3 107 299.7 105 327 97C354.3 89 381.7 75 409 79C436.3 83 463.7 105 491 113C518.3 121 545.7 115 573 104C600.3 93 627.7 77 654.8 74C682 71 709 81 736.2 85C763.3 89 790.7 87 818 92C845.3 97 872.7 109 886.3 115L900 121L900 0L886.3 0C872.7 0 845.3 0 818 0C790.7 0 763.3 0 736.2 0C709 0 682 0 654.8 0C627.7 0 600.3 0 573 0C545.7 0 518.3 0 491 0C463.7 0 436.3 0 409 0C381.7 0 354.3 0 327 0C299.7 0 272.3 0 245.2 0C218 0 191 0 163.8 0C136.7 0 109.3 0 82 0C54.7 0 27.3 0 13.7 0L0 0Z" fill="#62657f"></path><path d="M0 175L13.7 172C27.3 169 54.7 163 82 158C109.3 153 136.7 149 163.8 153C191 157 218 169 245.2 171C272.3 173 299.7 165 327 160C354.3 155 381.7 153 409 154C436.3 155 463.7 159 491 164C518.3 169 545.7 175 573 174C600.3 173 627.7 165 654.8 156C682 147 709 137 736.2 141C763.3 145 790.7 163 818 171C845.3 179 872.7 177 886.3 176L900 175L900 119L886.3 113C872.7 107 845.3 95 818 90C790.7 85 763.3 87 736.2 83C709 79 682 69 654.8 72C627.7 75 600.3 91 573 102C545.7 113 518.3 119 491 111C463.7 103 436.3 81 409 77C381.7 73 354.3 87 327 95C299.7 103 272.3 105 245.2 96C218 87 191 67 163.8 62C136.7 57 109.3 67 82 80C54.7 93 27.3 109 13.7 117L0 125Z" fill="#4f526d"></path><path d="M0 253L13.7 251C27.3 249 54.7 245 82 244C109.3 243 136.7 245 163.8 250C191 255 218 263 245.2 269C272.3 275 299.7 279 327 285C354.3 291 381.7 299 409 296C436.3 293 463.7 279 491 281C518.3 283 545.7 301 573 292C600.3 283 627.7 247 654.8 224C682 201 709 191 736.2 206C763.3 221 790.7 261 818 270C845.3 279 872.7 257 886.3 246L900 235L900 173L886.3 174C872.7 175 845.3 177 818 169C790.7 161 763.3 143 736.2 139C709 135 682 145 654.8 154C627.7 163 600.3 171 573 172C545.7 173 518.3 167 491 162C463.7 157 436.3 153 409 152C381.7 151 354.3 153 327 158C299.7 163 272.3 171 245.2 169C218 167 191 155 163.8 151C136.7 147 109.3 151 82 156C54.7 161 27.3 167 13.7 170L0 173Z" fill="#3d405b"></path><path d="M0 499L13.7 482C27.3 465 54.7 431 82 432C109.3 433 136.7 469 163.8 466C191 463 218 421 245.2 411C272.3 401 299.7 423 327 425C354.3 427 381.7 409 409 413C436.3 417 463.7 443 491 449C518.3 455 545.7 441 573 434C600.3 427 627.7 427 654.8 429C682 431 709 435 736.2 429C763.3 423 790.7 407 818 390C845.3 373 872.7 355 886.3 346L900 337L900 233L886.3 244C872.7 255 845.3 277 818 268C790.7 259 763.3 219 736.2 204C709 189 682 199 654.8 222C627.7 245 600.3 281 573 290C545.7 299 518.3 281 491 279C463.7 277 436.3 291 409 294C381.7 297 354.3 289 327 283C299.7 277 272.3 273 245.2 267C218 261 191 253 163.8 248C136.7 243 109.3 241 82 242C54.7 243 27.3 247 13.7 249L0 251Z" fill="#35384f"></path><path d="M0 601L13.7 601C27.3 601 54.7 601 82 601C109.3 601 136.7 601 163.8 601C191 601 218 601 245.2 601C272.3 601 299.7 601 327 601C354.3 601 381.7 601 409 601C436.3 601 463.7 601 491 601C518.3 601 545.7 601 573 601C600.3 601 627.7 601 654.8 601C682 601 709 601 736.2 601C763.3 601 790.7 601 818 601C845.3 601 872.7 601 886.3 601L900 601L900 335L886.3 344C872.7 353 845.3 371 818 388C790.7 405 763.3 421 736.2 427C709 433 682 429 654.8 427C627.7 425 600.3 425 573 432C545.7 439 518.3 453 491 447C463.7 441 436.3 415 409 411C381.7 407 354.3 425 327 423C299.7 421 272.3 399 245.2 409C218 419 191 461 163.8 464C136.7 467 109.3 431 82 430C54.7 429 27.3 463 13.7 480L0 497Z" fill="#2d3043"></path></svg>