<svg id="visual" viewBox="0 0 900 600" width="900" height="600" xmlns="http://www.w3.org/2000/svg" xmlns:xlink="http://www.w3.org/1999/xlink" version="1.1"><path d="M0 115L13.7 112C27.3 109 54.7 103 82 108C109.3 113 136.7 129 163.8 130C191 131 218 117 245.2 109C272.3 101 299.7 99 327 93C354.3 87 381.7 77 409 75C436.3 73 463.7 79 491 90C518.3 101 545.7 117 573 115C600.3 113 627.7 93 654.8 92C682 91 709 109 736.2 113C763.3 117 790.7 107 818 104C845.3 101 872.7 105 886.3 107L900 109L900 0L886.3 0C872.7 0 845.3 0 818 0C790.7 0 763.3 0 736.2 0C709 0 682 0 654.8 0C627.7 0 600.3 0 573 0C545.7 0 518.3 0 491 0C463.7 0 436.3 0 409 0C381.7 0 354.3 0 327 0C299.7 0 272.3 0 245.2 0C218 0 191 0 163.8 0C136.7 0 109.3 0 82 0C54.7 0 27.3 0 13.7 0L0 0Z" fill="#62657f"></path><path d="M0 199L13.7 209C27.3 219 54.7 239 82 241C109.3 243 136.7 227 163.8 215C191 203 218 195 245.2 194C272.3 193 299.7 199 327 222C354.3 245 381.7 285 409 279C436.3 273 463.7 221 491 202C518.3 183 545.7 197 573 215C600.3 233 627.7 255 654.8 283C682 311 709 345 736.2 341C763.3 337 790.7 295 818 270C845.3 245 872.7 237 886.3 233L900 229L900 107L886.3 105C872.7 103 845.3 99 818 102C790.7 105 763.3 115 736.2 111C709 107 682 89 654.8 90C627.7 91 600.3 111 573 113C545.7 115 518.3 99 491 88C463.7 77 436.3 71 409 73C381.7 75 354.3 85 327 91C299.7 97 272.3 99 245.2 107C218 115 191 129 163.8 128C136.7 127 109.3 111 82 106C54.7 101 27.3 107 13.7 110L0 113Z" fill="#4f526d"></path><path d="M0 295L13.7 297C27.3 299 54.7 303 82 304C109.3 305 136.7 303 163.8 297C191 291 218 281 245.2 282C272.3 283 299.7 295 327 319C354.3 343 381.7 379 409 368C436.3 357 463.7 299 491 278C518.3 257 545.7 273 573 290C600.3 307 627.7 325 654.8 349C682 373 709 403 736.2 401C763.3 399 790.7 365 818 346C845.3 327 872.7 323 886.3 321L900 319L900 227L886.3 231C872.7 235 845.3 243 818 268C790.7 293 763.3 335 736.2 339C709 343 682 309 654.8 281C627.7 253 600.3 231 573 213C545.7 195 518.3 181 491 200C463.7 219 436.3 271 409 277C381.7 283 354.3 243 327 220C299.7 197 272.3 191 245.2 192C218 193 191 201 163.8 213C136.7 225 109.3 241 82 239C54.7 237 27.3 217 13.7 207L0 197Z" fill="#3d405b"></path><path d="M0 487L13.7 499C27.3 511 54.7 535 82 539C109.3 543 136.7 527 163.8 517C191 507 218 503 245.2 506C272.3 509 299.7 519 327 529C354.3 539 381.7 549 409 545C436.3 541 463.7 523 491 511C518.3 499 545.7 493 573 492C600.3 491 627.7 495 654.8 504C682 513 709 527 736.2 527C763.3 527 790.7 513 818 507C845.3 501 872.7 503 886.3 504L900 505L900 317L886.3 319C872.7 321 845.3 325 818 344C790.7 363 763.3 397 736.2 399C709 401 682 371 654.8 347C627.7 323 600.3 305 573 288C545.7 271 518.3 255 491 276C463.7 297 436.3 355 409 366C381.7 377 354.3 341 327 317C299.7 293 272.3 281 245.2 280C218 279 191 289 163.8 295C136.7 301 109.3 303 82 302C54.7 301 27.3 297 13.7 295L0 293Z" fill="#35384f"></path><path d="M0 601L13.7 601C27.3 601 54.7 601 82 601C109.3 601 136.7 601 163.8 601C191 601 218 601 245.2 601C272.3 601 299.7 601 327 601C354.3 601 381.7 601 409 601C436.3 601 463.7 601 491 601C518.3 601 545.7 601 573 601C600.3 601 627.7 601 654.8 601C682 601 709 601 736.2 601C763.3 601 790.7 601 818 601C845.3 601 872.7 601 886.3 601L900 601L900 503L886.3 502C872.7 501 845.3 499 818 505C790.7 511 763.3 525 736.2 525C709 525 682 511 654.8 502C627.7 493 600.3 489 573 490C545.7 491 518.3 497 491 509C463.7 521 436.3 539 409 543C381.7 547 354.3 537 327 527C299.7 517 272.3 507 245.2 504C218 501 191 505 163.8 515C136.7 525 109.3 541 82 537C54.7 533 27.3 509 13.7 497L0 485Z" fill="#2d3043"></path></svg>